<?xml version="1.0" encoding="UTF-8" standalone="no"?>
<!-- Created with Inkscape (http://www.inkscape.org/) -->

<svg
   xmlns:dc="http://purl.org/dc/elements/1.1/"
   xmlns:cc="http://creativecommons.org/ns#"
   xmlns:rdf="http://www.w3.org/1999/02/22-rdf-syntax-ns#"
   xmlns:svg="http://www.w3.org/2000/svg"
   xmlns="http://www.w3.org/2000/svg"
   xmlns:sodipodi="http://sodipodi.sourceforge.net/DTD/sodipodi-0.dtd"
   xmlns:inkscape="http://www.inkscape.org/namespaces/inkscape"
   width="105.84866mm"
   height="132.29167mm"
   viewBox="0 0 105.84866 132.29167"
   version="1.1"
   id="svg8"
   inkscape:version="0.92.3 (2405546, 2018-03-11)"
   sodipodi:docname="Zeichnung.svg">
  <defs
     id="defs2" />
  <sodipodi:namedview
     id="base"
     pagecolor="#ffffff"
     bordercolor="#666666"
     borderopacity="1.0"
     inkscape:pageopacity="0.0"
     inkscape:pageshadow="2"
     inkscape:zoom="0.49497475"
     inkscape:cx="-216.40344"
     inkscape:cy="304.54098"
     inkscape:document-units="mm"
     inkscape:current-layer="layer1"
     showgrid="false"
     fit-margin-top="0"
     fit-margin-left="0"
     fit-margin-right="0"
     fit-margin-bottom="0"
     inkscape:window-width="1920"
     inkscape:window-height="986"
     inkscape:window-x="-11"
     inkscape:window-y="-11"
     inkscape:window-maximized="1" />
  <metadata
     id="metadata5">
    <rdf:RDF>
      <cc:Work
         rdf:about="">
        <dc:format>image/svg+xml</dc:format>
        <dc:type
           rdf:resource="http://purl.org/dc/dcmitype/StillImage" />
        <dc:title></dc:title>
      </cc:Work>
    </rdf:RDF>
  </metadata>
  <g
     inkscape:label="Ebene 1"
     inkscape:groupmode="layer"
     id="layer1"
     transform="translate(56.359327,-154.94485)">
    <g
       id="g854"
       transform="translate(69.884743,24.632348)">
      <path
         sodipodi:nodetypes="cccscccccscscccscc"
         inkscape:connector-curvature="0"
         id="path21-1"
         d="m -74.662802,260.16755 c -1.55503,-3.21832 -3.10647,-4.80537 -6.22159,-6.36442 -1.30082,-0.65105 -3.19859,-1.45637 -4.21723,-1.78961 -12.68992,-4.15139 -20.559478,-8.74891 -28.292908,-16.52914 -5.70021,-5.7347 -10.49637,-14.76061 -11.91249,-22.41818 -0.85427,-4.61933 -0.93279,-8.44171 -0.93505,-45.51359 l -0.002,-37.24011 h 52.924188 52.924196 l -0.084,39.09219 c -0.0949,44.18174 0.0168,41.72704 -2.20618,48.46 -2.28134,6.90977 -5.989215,12.98753 -10.863631,17.80714 -3.81454,3.77165 -5.983571,5.56224 -9.61539,7.93772 -4.911245,3.21233 -9.588665,5.40428 -16.536465,7.74936 -7.72124,2.60615 -10.27762,4.44042 -12.3644,8.8717 -0.61475,1.30546 -1.18562,2.37356 -1.2686,2.37356 -0.083,0 -0.68064,-1.09648 -1.32817,-2.43662 z"
         style="fill:#ffffff;fill-opacity:1;stroke-width:1" />
      <path
         inkscape:connector-curvature="0"
         id="path21"
         d="m -74.662522,260.16755 c -1.55503,-3.21832 -3.10646,-4.80537 -6.22158,-6.36442 -1.30083,-0.65105 -3.19859,-1.45637 -4.21724,-1.78961 -12.68991,-4.15139 -20.559478,-8.74891 -28.292908,-16.52914 -5.70021,-5.7347 -10.49637,-14.76061 -11.91249,-22.41818 -0.85427,-4.61933 -0.93279,-8.44171 -0.93505,-45.51359 l -0.002,-37.24011 h 52.924188 52.924197 l -0.08402,39.09219 c -0.09495,44.18174 0.0168,41.72704 -2.206175,48.46 -2.281346,6.90977 -5.989217,12.98753 -10.863632,17.80714 -3.81454,3.77165 -5.98357,5.56224 -9.61539,7.93772 -4.91124,3.21233 -9.58867,5.40428 -16.53646,7.74936 -7.72124,2.60615 -10.27763,4.44042 -12.3644,8.8717 -0.61476,1.30546 -1.18563,2.37356 -1.2686,2.37356 -0.083,0 -0.68064,-1.09648 -1.32818,-2.43662 z m 2.38491,-3.57327 c 1.69936,-3.77952 4.96421,-6.29195 10.34414,-7.9602 10.83466,-3.3597 18.62857,-7.88685 25.82009,-14.99777 5.923034,-5.85667 9.941844,-13.25913 11.788707,-21.71427 0.572498,-2.62096 0.575146,-2.78198 0.666237,-40.53298 l 0.09145,-37.90156 h -49.758774 -49.758778 l 0.0881,37.90156 c 0.0879,37.80334 0.0896,37.90842 0.66519,40.5474 0.81401,3.73195 1.73638,6.42962 3.3472,9.78958 2.27268,4.74055 4.7839,8.28443 8.4459,11.91905 6.8547,6.80344 13.664658,10.87236 24.178978,14.44685 7.60931,2.58688 9.8482,4.16682 11.84768,8.36067 0.57238,1.20054 1.10273,2.18268 1.17855,2.18252 0.0758,-1.6e-4 0.55073,-0.91854 1.05534,-2.04085 z m -2.31344,-2.98881 c -1.95653,-4.06465 -3.9051,-5.46895 -10.9508,-7.89209 -10.76874,-3.70355 -16.841128,-7.3509 -23.669168,-14.21677 -4.20579,-4.22909 -7.58387,-9.81646 -9.61789,-15.90803 -1.86162,-5.57525 -1.85889,-5.51787 -1.85889,-39.11984 v -29.75207 h 47.368788 47.368782 l -0.09152,30.8901 c -0.100992,34.08675 -0.0113,32.21276 -1.810941,37.8336 -3.30081,10.3094 -10.766391,18.98453 -21.662191,25.17181 -3.51834,1.99793 -6.6803,3.3848 -11.59132,5.0841 -7.12739,2.4662 -9.15756,3.93573 -11.03055,7.98441 -0.58209,1.25824 -1.11787,2.28489 -1.19063,2.28145 -0.0728,-0.003 -0.64141,-1.06394 -1.26367,-2.35667 z m 2.04593,-0.71288 c 0.35749,-0.82526 1.03709,-2.06322 1.51022,-2.75104 l 0.86024,-1.25057 -1.72393,-1.08091 c -0.94816,-0.59449 -1.82662,-1.0809 -1.95213,-1.0809 -0.12551,0 -0.87365,0.38251 -1.66255,0.85001 l -1.43435,0.85001 1.11838,1.51921 c 0.61511,0.83557 1.39204,2.17947 1.72651,2.98645 0.33448,0.80698 0.67553,1.4652 0.75789,1.46272 0.0824,-0.002 0.44224,-0.67973 0.79972,-1.50498 z m 4.44893,-5.48465 c 0.54259,-0.35429 1.50031,-0.84657 2.12827,-1.09398 0.62797,-0.2474 1.04469,-0.53065 0.92604,-0.62944 -0.11864,-0.0988 -0.93008,-0.39476 -1.80321,-0.65771 -1.8128,-0.54595 -3.59962,-1.4051 -5.66805,-2.72537 l -1.43471,-0.91577 -0.94654,0.5638 c -1.89081,1.12626 -4.94774,2.59936 -6.34453,3.05736 l -1.42925,0.46865 1.56154,0.65835 c 0.85885,0.3621 1.79639,0.82277 2.08343,1.02372 0.80153,0.56114 1.20131,0.45984 3.30578,-0.83766 l 1.95125,-1.20302 1.13811,0.81733 c 1.00446,0.72135 3.27895,2.10606 3.47354,2.1147 0.0395,0.002 0.51575,-0.28668 1.05833,-0.64096 z m 11.40217,-4.54898 c 3.65544,-1.46642 6.20197,-2.75365 9.26753,-4.6846 l 1.69151,-1.06545 -0.76547,-0.62691 c -1.43215,-1.17291 -1.49095,-1.17348 -3.16694,-0.0308 -5.34232,3.6422 -10.82854,4.93151 -15.72451,3.6954 -2.47434,-0.62471 -5.40649,-1.92207 -7.32087,-3.2392 l -1.24057,-0.85353 -1.07609,0.60092 c -5.07526,2.83419 -7.68786,3.73177 -11.39483,3.91476 -4.135,0.20412 -7.45543,-0.92621 -11.32535,-3.85534 l -1.72553,-1.30606 -0.812178,0.56731 c -0.44669,0.31202 -0.81422,0.659 -0.81674,0.77108 -0.009,0.38093 4.085178,2.8832 7.111758,4.34703 3.72392,1.8011 8.24616,3.51898 9.26355,3.51898 1.80533,0 6.27686,-1.82066 9.4512,-3.84822 l 1.35712,-0.86684 1.22439,0.87051 c 3.84563,2.73414 8.98901,4.41899 11.50411,3.76847 0.48986,-0.1267 2.51392,-0.88155 4.49791,-1.67746 z m -28.38572,-3.55787 c 2.7514,-0.38269 5.83413,-1.53776 8.70041,-3.25996 l 2.37202,-1.42522 1.54618,1.04999 c 2.00531,1.36178 4.94219,2.7393 6.9284,3.2497 2.01253,0.51717 5.92542,0.52051 7.95862,0.007 2.02466,-0.51155 5.8941,-2.41808 7.92371,-3.90412 l 1.58426,-1.15997 1.5537,1.14376 c 0.85453,0.62907 1.68942,1.14147 1.85531,1.13868 0.1659,-0.003 1.17956,-0.73889 2.25259,-1.63576 l 1.95096,-1.63067 -1.55408,-0.43702 c -2.0782,-0.58442 -3.141,-1.06924 -4.77424,-2.17792 l -1.36806,-0.92866 -1.41059,1.00068 c -1.82531,1.29489 -4.6336,2.69609 -6.96579,3.4756 -1.5474,0.51721 -2.39615,0.61904 -5.15937,0.61904 -2.79356,0 -3.59498,-0.0982 -5.15938,-0.63208 -2.22282,-0.75861 -4.01769,-1.63252 -5.88115,-2.86351 l -1.38324,-0.91375 -2.3906,1.3797 c -3.59187,2.07299 -6.37468,2.94077 -9.92921,3.09629 -4.45671,0.19499 -7.79031,-0.90047 -11.26794,-3.70278 -0.85909,-0.69226 -1.66848,-1.25866 -1.79865,-1.25866 -0.13016,0 -0.842248,0.40754 -1.582418,0.90563 -1.32738,0.89326 -3.91686,2.00479 -4.67047,2.00479 -0.69602,0 -0.40986,0.4692 1.00212,1.64312 2.34985,1.95368 2.18825,1.87725 3.0237,1.43014 0.41064,-0.21976 1.10067,-0.68971 1.5334,-1.04432 l 0.786788,-0.64476 1.85904,1.53386 c 2.36676,1.95277 5.25823,3.40187 7.65714,3.8375 2.41629,0.43878 2.40132,0.43846 4.80684,0.10388 z m 3.1534,-6.7398 c 2.39893,-0.81114 4.00769,-1.58005 6.08151,-2.90666 0.78854,-0.50442 1.56501,-0.91713 1.72551,-0.91713 0.16049,0 0.96989,0.45977 1.79865,1.02171 3.73247,2.53079 6.92463,3.59258 10.76725,3.58144 3.81041,-0.011 6.9793,-1.11057 11.06369,-3.83887 1.28285,-0.85692 2.38314,-1.55803 2.44511,-1.55803 0.062,0 0.67924,0.43473 1.37172,0.96607 1.61485,1.23907 3.74978,2.18475 5.71281,2.53053 l 1.55118,0.27323 1.7161,-1.68647 c 1.61263,-1.58479 3.42225,-3.86698 3.21854,-4.05904 -0.0504,-0.0475 -0.98462,0.14818 -2.07602,0.43489 -3.49578,0.91835 -7.26463,0.26284 -10.06785,-1.75107 -0.72075,-0.51781 -1.43578,-0.94147 -1.58895,-0.94147 -0.15317,0 -0.95657,0.45995 -1.78533,1.02212 -2.09995,1.42445 -4.35874,2.52499 -6.67553,3.25248 -1.63645,0.51387 -2.51937,0.6167 -5.15005,0.59985 -3.91039,-0.025 -6.18589,-0.69197 -9.85692,-2.88896 l -2.44858,-1.4654 -2.04933,1.15629 c -4.04244,2.28084 -7.54234,3.34033 -11.05573,3.34679 -3.73501,0.007 -7.4386,-1.36149 -10.59758,-3.91546 l -1.6123,-1.30351 -1.492968,1.00359 c -0.82114,0.55198 -2.1792,1.26238 -3.01791,1.57867 -1.80063,0.67905 -5.01194,0.95018 -6.67714,0.56375 -0.6509,-0.15104 -1.22859,-0.22949 -1.28376,-0.17432 -0.16929,0.16929 0.59247,1.12046 2.5268,3.15505 l 1.85164,1.94762 1.41008,-0.2563 c 1.6063,-0.29195 3.52747,-1.1943 5.3131,-2.49549 0.67434,-0.49139 1.302998,-0.89344 1.397028,-0.89344 0.094,0 0.95986,0.66925 1.92407,1.48721 1.87903,1.59403 5.29806,3.38906 7.23086,3.79627 2.09458,0.44129 5.97258,0.13128 8.3303,-0.66594 z m 4.23333,-7.66136 c 0.87313,-0.48445 2.02613,-1.17949 2.56222,-1.54451 l 0.97472,-0.66368 2.17854,1.43327 c 2.29208,1.50797 5.68635,2.9706 7.16577,3.0878 l 0.87709,0.0695 v -3.43958 c 0,-2.15346 -0.13922,-3.93425 -0.37232,-4.7625 -1.10787,-3.93647 -3.48684,-6.49463 -7.13755,-7.67519 -2.90541,-0.93955 -6.57493,-0.0645 -9.0297,2.15323 -2.46492,2.22691 -3.43218,4.79879 -3.63537,9.66626 -0.0769,1.8428 -0.0681,3.53765 0.0197,3.76634 0.13877,0.36163 0.46241,0.3099 2.48449,-0.39715 1.27871,-0.44711 3.03931,-1.20931 3.91243,-1.69377 z m -13.65023,-5.55514 c -1.28646,-6.39064 -6.05189,-9.86942 -10.490078,-7.65777 -3.40832,1.69843 -5.34486,5.87816 -5.35613,11.56038 -0.005,2.28489 0.004,2.3151 0.64693,2.3151 1.08314,0 3.5295,-1.04542 5.32852,-2.27708 0.9339,-0.63937 1.795158,-1.1625 1.913898,-1.1625 0.11874,0 0.4995,0.30189 0.84614,0.67086 1.00236,1.06697 3.9593,2.98455 5.68384,3.68599 l 1.58336,0.64401 0.0816,-3.09574 c 0.0454,-1.72564 -0.0599,-3.79834 -0.23803,-4.68325 z m 37.82134,6.10469 c 0.99034,-0.49872 2.59587,-1.45122 3.56784,-2.11667 0.97198,-0.66544 1.83645,-1.20989 1.92105,-1.20989 0.0846,0 0.616,0.39562 1.18091,0.87916 1.55298,1.32929 3.8168,2.3734 5.43735,2.50779 l 1.42487,0.11816 v -2.66557 c 0,-4.39807 -0.87276,-7.19328 -2.9536,-9.45959 -4.32898,-4.71483 -10.51268,-2.41157 -12.48762,4.6513 -0.53845,1.92563 -0.71349,8.20231 -0.22874,8.20218 0.18554,-6e-5 1.14761,-0.40814 2.13794,-0.90687 z m -59.502178,-6.50156 c -0.55739,-3.53546 -2.28374,-6.39346 -4.41408,-7.30758 -0.46826,-0.20094 -0.97428,-0.36534 -1.12447,-0.36534 -0.51186,0 -0.27425,1.28485 0.81637,4.41441 1.31752,3.78064 3.21209,7.56304 4.16447,8.31412 l 0.6992,0.5514 0.0857,-1.81132 c 0.0471,-0.99622 -0.0551,-2.70428 -0.22717,-3.79569 z m 80.438838,4.23852 c 1.405199,-1.97342 4.501613,-9.60202 4.501613,-11.09057 0,-0.7317 -0.191143,-0.70495 -1.671558,0.2339 -2.3895,1.51538 -3.531455,4.15977 -3.800595,8.80096 -0.17898,3.08622 -0.0132,3.43729 0.97054,2.05571 z m 5.559946,-20.11352 v -2.38125 h -2.38125 c -1.309687,0 -2.377919,-0.0893 -2.373844,-0.19844 0.0041,-0.10914 1.016103,-0.77209 2.248958,-1.47323 1.706187,-0.97032 2.246387,-1.41266 2.261796,-1.85208 0.01114,-0.31751 0.06013,-0.78565 0.108882,-1.04031 0.04875,-0.25467 -0.014,-0.46303 -0.13946,-0.46303 -0.125455,0 -2.037567,1.19063 -4.249142,2.64584 -4.061966,2.67275 -4.781636,2.95389 -6.169186,2.40998 -0.4055,-0.15895 0.58093,-0.89993 4.93607,-3.70785 l 5.442854,-3.5092 0.09292,-1.16834 c 0.05111,-0.64259 0.04497,-1.16834 -0.01363,-1.16834 -0.05861,0 -3.521551,2.20265 -7.695434,4.89479 l -7.58889,4.89479 h -1.63303 c -0.89817,0 -1.62724,-0.0893 -1.62016,-0.19844 0.007,-0.10914 3.77125,-2.57968 8.36482,-5.4901 11.1257,-7.04907 10.281192,-6.40426 10.248476,-7.82507 -0.01482,-0.64392 -0.147161,-1.1465 -0.294076,-1.11684 -0.146913,0.0297 -5.13541,3.11509 -11.08554,6.8565 -5.95014,3.74142 -11.17561,7.00985 -11.61218,7.26318 -0.63652,0.36938 -1.13424,0.42627 -2.51268,0.28725 l -1.71893,-0.17335 4.36476,-2.67195 c 2.40062,-1.46957 8.50219,-5.20179 13.55904,-8.29383 8.581792,-5.24738 9.194273,-5.67162 9.194273,-6.3684 0,-0.41058 0.0802,-0.9555 0.178226,-1.21095 0.136263,-0.3551 0.07625,-0.42532 -0.254881,-0.29825 -0.238207,0.0914 -7.295738,4.45786 -15.683398,9.70322 -16.18054,10.11878 -15.62331,9.82927 -17.91406,9.30729 -0.6633,-0.15114 -0.22031,-0.48652 4.63021,-3.50533 2.95003,-1.83601 10.75127,-6.69389 17.33609,-10.79528 l 11.972396,-7.45707 v -2.37605 c 0,-1.67388 -0.09774,-2.40408 -0.330729,-2.47089 -0.181901,-0.0522 -1.580885,-0.35493 -3.108854,-0.67283 -7.199483,-1.49784 -15.964773,-5.45153 -23.571843,-10.63235 -1.25009,-0.85138 -2.39927,-1.54796 -2.55374,-1.54796 -0.33868,0 -3.02199,1.2476 -10.90557,5.07053 -6.99087,3.39003 -12.79654,6.79215 -17.11854,10.03148 l -3.11263,2.3329 -2.25894,-2.31731 c -2.94671,-3.02283 -5.35508,-4.81485 -8.60895,-6.40573 -3.839548,-1.87724 -3.800768,-1.87629 -6.899308,-0.1698 -1.44413,0.79534 -3.69725,1.87047 -5.00694,2.38917 -2.26976,0.89895 -6.97956,2.03334 -8.44208,2.03334 h -0.68605 v 2.38125 c 0,1.44437 0.10633,2.38125 0.27025,2.38125 0.14863,0 1.69605,-0.82985 3.43869,-1.84413 l 3.16846,-1.84412 0.44669,0.68174 c 0.38207,0.58312 0.39177,0.71428 0.067,0.9066 -0.20882,0.12366 -1.92748,1.15879 -3.81925,2.30029 l -3.43958,2.07545 -0.0773,2.03709 c -0.0475,1.25102 0.0262,2.03708 0.19097,2.03708 0.14753,0 2.50403,-1.38537 5.23665,-3.07862 6.39817,-3.96456 7.4574,-4.59429 7.72774,-4.59429 0.20392,0 1.07712,1.15115 1.07712,1.41997 0,0.0636 -3.12539,2.05402 -6.94531,4.4231 -3.81992,2.36908 -7.03278,4.43458 -7.1397,4.58999 -0.20481,0.29771 -0.28361,2.53152 -0.0893,2.53152 0.0622,0 3.6548,-2.21921 7.98345,-4.93158 4.32865,-2.71237 8.0738,-4.9848 8.32254,-5.04985 0.63242,-0.16538 1.43401,0.98455 0.97628,1.40054 -0.18141,0.16487 -2.53249,1.64402 -5.22462,3.28702 -2.69214,1.64298 -6.5319,3.99631 -8.53282,5.2296 l -3.63802,2.24236 v 1.15991 c 0,0.63796 0.11591,1.15992 0.25757,1.15992 0.14167,0 2.85034,-1.64648 6.01927,-3.65885 10.26852,-6.5208 12.15241,-7.6997 12.54484,-7.85029 0.35179,-0.13499 1.793858,1.0678 1.530238,1.27633 -0.0612,0.0484 -4.159418,2.57014 -9.107118,5.60382 -12.28861,7.53476 -11.2448,6.75717 -11.2448,8.37672 0,1.14758 0.0668,1.32336 0.46302,1.21833 0.25467,-0.0675 4.27303,-2.54098 8.92969,-5.49661 4.65667,-2.95564 10.955598,-6.95411 13.997628,-8.88549 5.43087,-3.44807 5.54213,-3.50357 6.14787,-3.06706 0.33929,0.24451 0.5888,0.58649 0.55445,0.75996 -0.0482,0.24325 -12.446488,8.13463 -26.785358,17.04855 -0.44869,0.27893 -1.28259,0.49387 -1.91823,0.49443 l -1.12448,9.9e-4 v 2.24896 2.24896 h 46.169788 46.169796 z m -42.850406,-2.03949 c 0.007,-0.11521 5.55268,-3.72181 12.32452,-8.01468 6.77183,-4.29286 14.53522,-9.21906 17.25197,-10.94711 11.453689,-7.28536 10.223077,-6.60277 11.276897,-6.25498 0.516276,0.17039 0.93164,0.38986 0.92303,0.48771 -0.0086,0.0979 -1.348065,1.02951 -2.976562,2.07034 -3.162945,2.02154 -8.311525,5.35547 -24.527225,15.8824 l -10.18922,6.61467 -2.04776,0.18556 c -1.12626,0.10206 -2.0423,0.0913 -2.03565,-0.0239 z m -41.542228,-0.44533 c 0.39195,-0.37245 21.249828,-13.53454 23.067658,-14.55654 l 0.98439,-0.55343 0.72137,0.71958 c 0.39674,0.39578 0.66814,0.77174 0.6031,0.83547 -0.065,0.0637 -4.99983,3.05867 -10.96618,6.6554 -5.966348,3.59674 -11.082768,6.70336 -11.369808,6.9036 -0.28884,0.20149 -1.17076,0.36407 -1.97493,0.36407 -1.25043,0 -1.39901,-0.0513 -1.0656,-0.36815 z m 8.03685,0.16971 c 0.10835,-0.10914 4.503738,-2.83676 9.767528,-6.06137 l 9.57054,-5.86293 0.61471,0.67471 c 0.77257,0.848 0.94051,0.69427 -4.05429,3.71113 -2.18281,1.31841 -5.93328,3.59775 -8.33437,5.06518 -4.333568,2.64847 -4.378098,2.66808 -6.063368,2.6699 -0.93376,0.001 -1.6091,-0.0875 -1.50075,-0.19662 z m 16.564538,0.037 c 0.003,-0.1295 1.96302,-1.40266 4.35667,-2.82924 3.71754,-2.21561 4.43055,-2.5518 4.89021,-2.3058 0.29596,0.1584 0.53415,0.43263 0.52932,0.60942 -0.005,0.17678 -1.55157,1.25264 -3.43719,2.39081 -2.85275,1.72193 -3.67312,2.09465 -4.88599,2.21983 -0.80169,0.0827 -1.45555,0.0445 -1.45302,-0.085 z m 7.93291,-0.0704 c 0,-0.38821 3.67894,-2.19566 4.03594,-1.98284 0.76489,0.456 2.31406,1.79113 2.31406,1.99435 0,0.12117 -1.42875,0.2203 -3.175,0.2203 -1.74625,0 -3.175,-0.10431 -3.175,-0.23181 z m -15.4649,-0.2758 c 0.13825,-0.13366 3.21379,-2.04472 6.83455,-4.2468 l 6.58319,-4.00378 0.63021,0.59205 c 0.36994,0.34755 0.5326,0.68966 0.39386,0.8284 -0.12999,0.12999 -2.84024,1.77446 -6.02278,3.65439 -5.50951,3.25447 -5.85543,3.41806 -7.2284,3.4184 -0.88208,2.3e-4 -1.34438,-0.094 -1.19063,-0.24266 z m 30.86584,-7.94166 -0.87093,-0.73582 0.73864,-0.4872 c 3.49464,-2.30503 27.70559,-17.31521 27.92889,-17.31521 0.48995,0 2.04621,0.62467 2.04621,0.82134 0,0.10222 -1.69664,1.25529 -3.77031,2.56238 -2.07367,1.30708 -6.74688,4.25053 -10.3849,6.54099 -3.63802,2.29046 -8.22192,5.18141 -10.18646,6.42432 -1.96453,1.24291 -3.81,2.40951 -4.10104,2.59243 -0.45767,0.28766 -0.64684,0.23318 -1.4001,-0.40323 z m -3.49371,-3.58823 c -0.34123,-0.36323 -0.57035,-0.70146 -0.50914,-0.75163 0.0612,-0.0502 1.24238,-0.78189 2.62483,-1.62603 6.17105,-3.76814 8.69218,-5.31435 14.02291,-8.60026 3.1287,-1.92856 6.65245,-4.08908 7.83054,-4.80116 l 2.142,-1.29469 0.96686,0.40398 c 0.53177,0.22219 0.96686,0.45176 0.96686,0.51017 0,0.21259 -26.83646,16.82004 -27.17999,16.82004 -0.13444,0 -0.52363,-0.29719 -0.86487,-0.66042 z m -3.04104,-2.77641 c -0.4168,-0.43504 -0.70697,-0.83822 -0.64482,-0.89595 0.0622,-0.0577 2.67285,-1.67676 5.80155,-3.59783 3.1287,-1.92107 6.10526,-3.76509 6.61458,-4.09781 0.50932,-0.33273 3.58457,-2.24487 6.83387,-4.24921 l 5.90783,-3.64424 0.94648,0.45134 c 0.79752,0.38031 0.88793,0.50518 0.57446,0.79344 -0.37129,0.34142 -25.02385,16.03125 -25.18902,16.03125 -0.0479,0 -0.42813,-0.35594 -0.84493,-0.79099 z m 3.08037,-7.50047 -0.5811,-0.61855 8.6408,-5.48651 c 6.44066,-4.08953 8.78319,-5.44842 9.20008,-5.33692 0.69996,0.18723 1.37822,0.61739 1.21308,0.76936 -0.42705,0.39299 -17.47275,11.29117 -17.66036,11.29117 -0.12727,0 -0.4929,-0.27835 -0.8125,-0.61855 z m -3.4928,-3.49623 c -0.36922,-0.39302 -0.51601,-0.744 -0.36724,-0.87806 0.49968,-0.45024 14.44939,-8.82715 14.89241,-8.943 0.41559,-0.10868 1.59569,0.83826 1.33907,1.07448 -0.17512,0.1612 -14.07667,8.77543 -14.69034,9.10302 -0.47049,0.25115 -0.65601,0.19482 -1.1739,-0.35644 z m -15.77433,1.10689 c 4.95364,-4.00301 12.57327,-8.31344 24.83502,-14.04919 l 4.94674,-2.31397 2.06472,1.45188 c 7.33602,5.15855 15.60757,9.05456 23.231384,10.94229 0.291042,0.0721 -0.720989,-0.54154 -2.248954,-1.36357 -5.74299,-3.08967 -11.88777,-7.006 -18.98859,-12.10223 l -4.03963,-2.89923 -8.1312,4.44033 c -9.25233,5.05256 -8.32996,4.54805 -16.18235,8.85127 l -5.93447,3.25218 -8.51471,-4.25495 -8.514708,-4.25495 -1.6904,1.63875 c -2.31445,2.24373 -4.89972,4.12393 -7.70196,5.60143 -1.29633,0.6835 -2.30094,1.29876 -2.23246,1.36724 0.31833,0.31833 6.18654,-1.96302 8.9923,-3.49589 1.72124,-0.94036 3.35563,-1.70975 3.63198,-1.70975 0.75029,0 3.854058,1.22151 5.806188,2.28507 2.30476,1.25568 5.02609,3.3659 7.26895,5.63661 1.01474,1.02735 1.9472,1.8679 2.07214,1.8679 0.12493,0 0.72343,-0.40105 1.33001,-0.89122 z m -29.324218,-4.92965 c 3.71098,-1.80056 6.40463,-3.65658 9.21589,-6.35004 l 2.42058,-2.31916 8.612888,4.30799 8.6129,4.30798 5.6772,-3.0952 c 18.57822,-10.12881 23.96807,-13.08781 24.25781,-13.31744 0.2295,-0.18188 1.19658,0.38378 3.30729,1.93452 3.53535,2.59743 10.16798,7.12632 12.77252,8.72133 4.59937,2.81664 12.682047,7.13297 13.357055,7.13297 0.178408,0 0.268991,-4.14305 0.268991,-12.30312 v -12.30313 h -46.302086 -46.302088 v 12.4641 12.4641 l 0.72761,-0.18057 c 0.40018,-0.0993 1.91823,-0.75826 3.37344,-1.46433 z m -3.69901,-27.05361 c 0.0952,-0.32742 0.40808,-0.79881 0.69527,-1.04754 0.52238,-0.45241 2.92383,-6.81397 2.80314,-7.42561 -0.0406,-0.20572 0.27019,-0.32424 0.85022,-0.32424 h 0.9142 l 1.33476,3.62033 c 0.73411,1.99119 1.52903,3.83665 1.76647,4.10104 0.50498,0.56227 0.89199,1.67512 0.5783,1.66292 -0.11895,-0.005 -0.44739,-0.18322 -0.72986,-0.39688 -0.73442,-0.55548 -6.70507,-0.55548 -7.43949,0 -0.73214,0.55377 -0.97214,0.49477 -0.77301,-0.19002 z m 5.80206,-2.77812 c -0.21009,-0.69123 -0.60671,-1.9703 -0.88138,-2.84239 l -0.49941,-1.58562 -0.42478,1.01664 c -0.38274,0.91603 -1.48811,4.30596 -1.48811,4.56372 0,0.0574 0.82702,0.10442 1.83782,0.10442 h 1.83783 z m 77.246378,2.71964 c 0.10201,-0.40642 0.41322,-0.9316 0.69159,-1.16706 0.54844,-0.46391 2.64127,-6.07944 2.64127,-7.08713 0,-0.52407 0.13414,-0.61702 0.890394,-0.61702 h 0.890389 l 1.37354,3.77032 c 0.755446,2.07367 1.540716,3.89907 1.745041,4.05645 0.423844,0.32647 1.007316,1.70257 0.716486,1.68982 -0.105539,-0.005 -0.423005,-0.18322 -0.705479,-0.39688 -0.784326,-0.59323 -6.938961,-0.553 -7.801281,0.051 -0.62181,0.43554 -0.62575,0.43287 -0.44195,-0.29949 z m 5.978696,-1.79295 c 0,-0.49279 -1.625055,-5.27681 -1.750004,-5.15186 -0.181515,0.18151 -1.689582,4.76458 -1.689582,5.1347 0,0.25098 0.47673,0.34724 1.719794,0.34724 1.197626,0 1.719792,-0.10022 1.719792,-0.33008 z m -46.250976,1.3177 c -0.15305,-0.18441 -0.65574,-1.52386 -1.1171,-2.97656 -0.46135,-1.4527 -0.92775,-2.73611 -1.03643,-2.85202 -0.25123,-0.26793 -1.86633,4.21201 -1.86633,5.17678 0,0.67426 -0.0751,0.72224 -1.12448,0.71846 -0.64724,-0.002 -0.98567,-0.0922 -0.79741,-0.21179 0.36546,-0.23212 2.9788,-7.06249 2.97967,-7.78781 5.3e-4,-0.33502 0.21391,-0.46302 0.77236,-0.46302 0.75702,0 0.79539,0.0707 2.00181,3.69066 0.6765,2.02985 1.46893,3.99439 1.76094,4.36562 l 0.53093,0.67497 h -0.91285 c -0.50206,0 -1.03806,-0.15088 -1.19111,-0.33529 z m 5.0235,-0.10967 c -2.71989,-1.34031 -3.23559,-5.20638 -0.96089,-7.20359 1.69478,-1.48804 4.03985,-1.65193 5.96524,-0.41691 1.78785,1.14681 2.41233,4.01368 1.2751,5.85376 -1.20601,1.95137 -4.19705,2.7929 -6.27945,1.76674 z m 4.50795,-1.64986 c 1.60509,-1.79641 0.50869,-5.29898 -1.79394,-5.73095 -2.47918,-0.4651 -4.40039,2.51363 -3.1637,4.90513 1.07024,2.06962 3.48666,2.47213 4.95764,0.82582 z m -42.830748,1.43855 c 0.42668,-0.42668 3.08569,-7.07465 3.08569,-7.71474 0,-0.28443 0.23714,-0.37074 0.85405,-0.31085 0.7866,0.0764 0.91414,0.22918 1.61495,1.93499 0.4185,1.01864 1.11871,2.71975 1.55602,3.78023 0.43732,1.06049 0.96925,2.10228 1.18207,2.31511 0.33955,0.33955 0.21447,0.38645 -1.02101,0.3829 -0.77437,-0.002 -1.27237,-0.0915 -1.10666,-0.19844 0.21945,-0.14158 0.18175,-0.51782 -0.13876,-1.38501 l -0.44006,-1.19062 -1.61025,-0.0778 c -1.56857,-0.0758 -1.61875,-0.0573 -1.93902,0.71592 -0.18082,0.43656 -0.34627,1.09657 -0.36766,1.46669 -0.0345,0.59666 -0.15351,0.67297 -1.04997,0.67314 -0.89279,1.6e-4 -0.96526,-0.0456 -0.61939,-0.39151 z m 4.78991,-4.41987 c -0.42853,-1.35017 -0.84844,-2.11745 -1.01305,-1.8511 -0.0963,0.15588 -0.34551,0.76624 -0.55372,1.35637 l -0.37856,1.07296 h 1.06442 c 0.97413,0 1.04886,-0.049 0.88091,-0.57823 z m 4.51349,0.57784 v -4.23327 l 0.938578,1.6e-4 0.93858,1.6e-4 -0.11022,1.73101 -0.11023,1.731 2.21436,-0.0774 2.21434,-0.0774 -0.0148,-1.19063 c -0.008,-0.65484 -0.11017,-1.39898 -0.22674,-1.65364 -0.18198,-0.39755 -0.0677,-0.46308 0.80854,-0.4634 l 1.02049,-3.7e-4 -0.0859,3.85205 c -0.0606,2.71495 0.008,3.96471 0.23083,4.23371 0.26824,0.32319 0.12799,0.38165 -0.91558,0.38165 -1.13638,0 -1.211,-0.0399 -0.95844,-0.51177 0.15064,-0.28147 0.2739,-1.17444 0.2739,-1.98437 v -1.47257 h -2.26987 -2.26986 l 0.0871,1.98499 0.0871,1.98499 -0.92604,-8.4e-4 -0.926038,-8.5e-4 v -4.23326 z m 9.075208,3.91622 c 0.40127,-0.40127 0.43837,-6.89976 0.0436,-7.63739 -0.24846,-0.46426 -0.18051,-0.51178 0.73181,-0.51178 h 1.0057 l -0.0958,2.97657 c -0.0667,2.07212 -0.0114,2.89592 0.18182,2.71117 0.15267,-0.14597 1.26765,-1.45566 2.47772,-2.91042 1.69341,-2.03584 2.37112,-2.66474 2.94257,-2.73065 0.67011,-0.0773 0.71474,-0.0339 0.45812,0.44563 -0.40371,0.75435 -0.37557,7.24812 0.0332,7.65687 0.24694,0.24695 0.034,0.3175 -0.95844,0.3175 -1.06335,0 -1.22475,-0.0617 -0.96868,-0.37023 0.19831,-0.23894 0.28016,-1.24751 0.23084,-2.84427 l -0.0764,-2.47404 -2.35043,2.84427 c -2.05488,2.48662 -2.45246,2.84427 -3.16177,2.84427 -0.63105,0 -0.74079,-0.0705 -0.49384,-0.3175 z m 27.82154,-0.0642 c 0.22324,-0.269 0.29138,-1.51876 0.23083,-4.23371 l -0.0859,-3.85204 1.71979,0.004 c 1.96612,0.005 2.85661,0.36253 3.42529,1.3757 0.3668,0.65349 0.35517,0.76924 -0.14573,1.45138 l -0.54432,0.74127 0.71697,0.58887 c 0.86782,0.71277 1.07781,1.60878 0.62784,2.67895 -0.50371,1.19798 -1.58459,1.62697 -4.09931,1.62697 -1.85365,0 -2.117,-0.0545 -1.84545,-0.38166 z m 4.40968,-1.34897 c 0.60602,-0.9249 0.17157,-1.82184 -1.083,-2.23589 -1.45074,-0.47879 -1.72656,-0.248 -1.72656,1.44467 v 1.46352 h 1.18453 c 0.97662,0 1.26184,-0.118 1.62503,-0.6723 z m -1.01634,-3.70833 c 1.12806,-0.79013 0.57711,-1.96937 -0.92009,-1.96937 -0.83593,0 -0.87313,0.0432 -0.87313,1.01423 0,0.55783 0.0794,1.09361 0.17639,1.19063 0.29862,0.29861 1.00017,0.19643 1.61683,-0.23549 z m 3.89533,1.20523 v -4.23326 l 2.3151,1.6e-4 c 2.27464,1.6e-4 2.3151,0.0114 2.3151,0.6425 0,0.62042 -0.0497,0.63722 -1.4552,0.49216 l -1.45521,-0.1502 v 3.42369 c 0,2.31008 0.10327,3.52695 0.3175,3.74118 0.24694,0.24694 0.0558,0.31745 -0.8599,0.31727 l -1.17739,-2.4e-4 z m 5.99773,3.42575 c 0.16717,-0.47954 0.23828,-2.20034 0.17493,-4.23333 l -0.10672,-3.42536 h 1.67188 c 2.14105,0 3.31522,0.48583 3.75807,1.55496 0.65392,1.57869 -0.72034,3.22165 -2.67317,3.19585 l -0.88522,-0.0117 0.96108,-0.50784 c 1.55379,-0.82102 1.60862,-2.68496 0.0902,-3.06606 -1.35651,-0.34046 -1.44816,-0.12506 -1.44816,3.40378 0,2.18486 0.10489,3.36756 0.3175,3.58017 0.24695,0.24695 0.0442,0.3175 -0.91228,0.3175 h -1.22977 z m 5.17797,0.59169 c 0.36088,-0.2292 3.24409,-7.2324 3.24409,-7.87975 0,-0.29641 0.22863,-0.38205 0.85758,-0.32124 0.84058,0.0813 0.88939,0.16062 2.46235,4.0044 0.88263,2.15683 1.77664,4.03024 1.98669,4.16314 0.26192,0.16571 -0.013,0.24291 -0.87485,0.24569 -1.05458,0.003 -1.25677,-0.0759 -1.25677,-0.4928 0,-0.27328 -0.18019,-0.92812 -0.40043,-1.45521 -0.39609,-0.94799 -0.41733,-0.95836 -1.96249,-0.95836 h -1.56206 l -0.44694,1.1703 c -0.24582,0.64366 -0.3677,1.2985 -0.27085,1.4552 0.11548,0.18687 -0.21627,0.28353 -0.96401,0.28087 -0.65689,-0.002 -1.00117,-0.0923 -0.81231,-0.21224 z m 5.09596,-4.08319 c -1.2e-4,-0.0364 -0.22798,-0.66146 -0.50636,-1.38906 l -0.50615,-1.32292 -0.55197,1.27871 c -0.30359,0.70329 -0.55197,1.32836 -0.55197,1.38906 0,0.0607 0.47625,0.11036 1.05833,0.11036 0.58208,0 1.05823,-0.0298 1.05812,-0.0661 z"
         style="fill:#1a30a1;stroke-width:1" />
    </g>
  </g>
</svg>
